HIERARCHY
ROOT wrist
{
	OFFSET 0.00 0.00 0.00
	CHANNELS 6 Xposition Yposition Zposition Xrotation Yrotation Zrotation
	JOINT riHand
	{
		OFFSET -0.04598 0.37556 -0.10882
		CHANNELS 3 Xrotation Yrotation Zrotation
		JOINT RiIndexMP
		{
			OFFSET -1.68547 2.46874 -0.24056
			CHANNELS 3 Zrotation Xrotation Yrotation
			JOINT RiIndexPIP
			{
				OFFSET -0.10277 1.47086 -0.45732
				CHANNELS 3 Xrotation Yrotation Zrotation
				JOINT RiIndexDIP
				{
					OFFSET -0.08662 0.93830 -0.07738
					CHANNELS 3 Xrotation Yrotation Zrotation
					End Site
					{
						OFFSET -0.08320 0.90131 -0.07433
					}
				}
			}
		}
		JOINT RiMiddleMP
		{
			OFFSET -0.85407 2.65552 -0.00744
			CHANNELS 3 Zrotation Xrotation Yrotation
			JOINT RiMiddlePIP
			{
				OFFSET -0.20884 1.70284 -0.28882
				CHANNELS 3 Xrotation Yrotation Zrotation
				JOINT RiMiddleDIP
				{
					OFFSET -0.13920 1.15619 -0.27019
					CHANNELS 3 Xrotation Yrotation Zrotation
					End Site
					{
						OFFSET -0.12266 1.00992 -0.20553
					}
				}
			}
		}
		JOINT RiRingMP
		{
			OFFSET 0.20418 2.54564 0.23484
			CHANNELS 3 Zrotation Xrotation Yrotation
			JOINT RiRingPIP
			{
				OFFSET -0.04574 1.65131 -0.34737
				CHANNELS 3 Xrotation Yrotation Zrotation
				JOINT RiRingDIP
				{
					OFFSET -0.02985 1.07738 -0.23665
					CHANNELS 3 Xrotation Yrotation Zrotation
					End Site
					{
						OFFSET -0.02879 1.03950 -0.21867
					}
				}
			}
		}
		JOINT RiPinkyMP
		{
			OFFSET 0.88895 2.32064 0.25776
			CHANNELS 3 Zrotation Xrotation Yrotation
			JOINT RiPinkyPIP
			{
				OFFSET 0.43367 1.29723 -0.28031
				CHANNELS 3 Xrotation Yrotation Zrotation
				JOINT RiPinkyDIP
				{
					OFFSET 0.23832 0.72354 -0.17269
					CHANNELS 3 Xrotation Yrotation Zrotation
					End Site
					{
						OFFSET 0.24280 0.72316 -0.15150
					}
				}
			}
		}
		JOINT RiThumbCMC
		{
			OFFSET -1.27353 -0.34685 -0.51300
			CHANNELS 3 Xrotation Yrotation Zrotation
			JOINT RiThumbMP
			{
				OFFSET -0.97380 1.27673 -0.24634
				CHANNELS 3 Xrotation Yrotation Zrotation
				JOINT RiThumbIP
				{
					OFFSET -0.63535 0.77080 -0.10130
					CHANNELS 3 Xrotation Yrotation Zrotation
					End Site
					{
						OFFSET -0.66228 0.82323 -0.12448
					}
				}
			}
		}
	}
}
MOTION
Frames: 17
Frame Time: 0.008333
 0.8197 55.9711 -1.5877 174.2040 -31.2110 174.3749 2.0097 3.3875 -1.7797 -21.2147 -42.5909 -20.4344 -100.4864 0.9965 -12.2971 -72.3523 -1.5579 -9.3378 -32.8487 -58.6406 -36.4604 -95.3158 -5.1162 -9.9931 -79.8150 -5.5686 -8.0000 -0.9270 -73.3984 -2.2835 -82.9723 -1.6260 -1.3023 -75.4884 -1.5778 -1.1028 28.7335 -63.0605 36.1906 -63.9986 12.1564 22.4107 -103.3561 5.8074 37.1616 -11.7859 -68.1743 -5.3557 -11.1890 -8.7864 -11.1920 -17.9015 -12.4715 -17.9060
 0.8274 56.0462 -1.5780 174.1861 -31.2415 174.7867 2.1074 3.7337 -1.8921 -21.3842 -42.7394 -20.6188 -100.1543 0.9584 -12.2701 -72.0969 -1.5739 -9.3058 -33.8299 -58.4835 -37.4479 -95.4643 -5.1093 -10.0115 -79.8084 -5.5687 -7.9991 -2.0789 -73.5761 -3.4579 -83.3679 -1.6278 -1.3130 -75.2758 -1.5761 -1.0972 28.3244 -63.4355 35.7904 -65.0592 12.1247 22.8450 -103.1700 5.8613 37.1034 -12.0496 -68.8036 -5.9099 -11.2775 -8.8420 -11.2806 -18.5670 -12.7808 -18.5717
 0.8319 56.1219 -1.5739 173.8008 -31.2556 174.8209 1.8793 4.0588 -1.9400 -22.2437 -43.1747 -21.5179 -99.0018 0.8273 -12.1747 -72.7054 -1.5355 -9.3819 -34.9354 -58.7310 -38.6296 -94.9718 -5.1321 -9.9504 -79.6214 -5.5708 -7.9745 -2.4521 -74.3389 -3.8431 -82.5782 -1.6241 -1.2916 -77.3295 -1.5921 -1.1512 28.5494 -63.9975 36.0131 -66.3964 12.0736 23.3917 -101.8567 6.2363 36.6884 -11.8385 -69.5388 -5.5216 -11.4778 -8.9672 -11.4809 -19.2202 -13.0750 -19.2250
 0.8352 56.1830 -1.5645 173.7597 -31.2826 175.0117 1.9156 4.1977 -1.8947 -22.3832 -43.1243 -21.6488 -99.1474 0.8438 -12.1869 -72.4841 -1.5496 -9.3543 -35.3405 -58.7527 -39.0534 -95.0317 -5.1293 -9.9579 -79.5831 -5.5712 -7.9694 -2.6611 -74.4793 -4.0572 -82.6026 -1.6242 -1.2923 -77.3610 -1.5923 -1.1521 29.1972 -64.4310 36.6499 -66.3964 12.0736 23.3917 -102.0112 6.1928 36.7376 -12.0422 -69.5865 -5.8571 -11.5440 -9.0084 -11.5471 -20.0689 -13.4437 -20.0739
 0.8397 56.2401 -1.5584 173.6287 -31.3446 175.1811 1.8487 4.5175 -1.9503 -23.0051 -43.0983 -22.2597 -98.8709 0.8126 -12.1637 -72.7927 -1.5300 -9.3928 -35.6278 -58.6562 -39.3378 -94.6377 -5.1472 -9.9089 -80.2521 -5.5633 -8.0575 -3.2919 -74.7159 -4.7022 -82.5011 -1.6237 -1.2895 -77.2864 -1.5918 -1.1501 29.3862 -65.0307 36.8321 -65.5156 12.1087 23.0317 -103.6493 5.7219 37.2530 -12.2823 -70.2533 -6.1394 -11.3755 -8.9034 -11.3786 -20.7486 -13.7281 -20.7537
 0.8427 56.2898 -1.5516 173.5247 -31.3699 175.2643 1.8729 4.7806 -1.8595 -23.4065 -43.3554 -22.6918 -98.3451 0.7535 -12.1192 -73.1487 -1.5071 -9.4371 -36.5231 -58.8806 -40.3042 -94.0330 -5.1739 -9.8335 -80.8007 -5.5560 -8.1297 -4.0321 -75.0573 -5.4599 -81.9344 -1.6208 -1.2742 -77.5199 -1.5935 -1.1563 29.6932 -65.4839 37.1295 -65.8001 12.0979 23.1480 -103.3772 5.8012 37.1682 -12.1809 -70.8220 -5.9352 -11.4252 -8.9345 -11.4283 -21.4471 -14.0104 -21.4524
 0.8404 56.3353 -1.5414 173.2805 -31.3751 175.2148 1.6964 4.8229 -1.5769 -23.3915 -43.2852 -22.6676 -98.7699 0.8012 -12.1552 -72.7399 -1.5333 -9.3862 -36.4640 -58.9018 -40.2455 -94.2589 -5.1640 -9.8617 -80.1922 -5.5640 -8.0496 -3.7892 -75.3985 -5.2141 -81.5910 -1.6190 -1.2650 -77.7057 -1.5948 -1.1612 31.0000 -65.9049 38.4121 -65.0710 12.1243 22.8498 -103.7139 5.7030 37.2730 -12.0515 -70.7713 -5.8689 -11.6866 -9.0967 -11.6898 -22.4097 -14.3831 -22.4152
 0.8472 56.3705 -1.5346 173.2794 -31.3722 175.4562 1.8442 5.0665 -1.5936 -23.9039 -43.3612 -23.1877 -98.2893 0.7473 -12.1144 -73.1171 -1.5091 -9.4332 -37.1065 -58.7714 -40.8979 -93.9490 -5.1776 -9.8230 -80.6575 -5.5579 -8.1109 -4.5251 -75.4755 -5.9660 -81.8187 -1.6202 -1.2711 -77.5926 -1.5940 -1.1582 30.8191 -66.2183 38.2277 -65.5134 12.1088 23.0308 -103.5605 5.7478 37.2253 -12.4508 -71.4283 -6.2885 -11.6329 -9.0635 -11.6360 -23.3122 -14.7156 -23.3178
 0.8510 56.4025 -1.5249 173.2956 -31.3386 175.6342 2.0274 5.1292 -1.3898 -24.1253 -43.2520 -23.3938 -98.3468 0.7537 -12.1193 -73.1801 -1.5050 -9.4410 -37.7501 -58.8696 -41.5868 -93.5558 -5.1945 -9.7738 -81.5377 -5.5451 -8.2265 -4.6033 -75.7600 -6.0476 -81.3638 -1.6178 -1.2589 -77.8177 -1.5956 -1.1642 31.6202 -66.6433 39.0094 -65.2092 12.1196 22.9064 -103.9387 5.6370 37.3427 -12.7267 -71.7926 -6.7123 -11.4334 -8.9396 -11.4365 -24.2787 -15.0538 -24.2845
 0.8546 56.4248 -1.5203 173.2636 -31.3170 175.7796 1.9527 5.2866 -1.3782 -24.1201 -42.8716 -23.3360 -98.8030 0.8049 -12.1580 -72.9059 -1.5227 -9.4069 -37.4513 -58.6241 -41.2372 -93.9981 -5.1755 -9.8291 -80.9295 -5.5542 -8.1466 -4.5163 -75.6351 -5.9579 -81.5776 -1.6190 -1.2646 -77.5093 -1.5934 -1.1560 31.4467 -66.3960 38.8436 -66.4401 12.0717 23.4095 -103.1670 5.8622 37.1025 -12.6857 -71.9998 -6.7837 -11.6706 -9.0868 -11.6737 -24.6388 -15.1751 -24.6446
 0.8646 56.4469 -1.5104 173.5097 -31.3262 176.1163 2.3987 5.3310 -1.3963 -24.3449 -42.9963 -23.5776 -98.8620 0.8116 -12.1630 -73.1233 -1.5087 -9.4339 -37.5776 -58.6943 -41.3801 -94.2593 -5.1640 -9.8617 -80.7015 -5.5573 -8.1167 -4.6906 -75.8576 -6.1373 -81.8275 -1.6203 -1.2714 -77.4694 -1.5931 -1.1549 31.8152 -66.6717 39.2013 -66.3508 12.0755 23.3731 -103.3028 5.8228 37.1450 -12.6506 -72.4130 -6.6944 -11.8157 -9.1762 -11.8189 -25.1868 -15.3549 -25.1927
 0.8694 56.4669 -1.5111 173.2556 -31.3280 176.0493 2.1970 5.5053 -1.4240 -24.4738 -43.2595 -23.7431 -98.3960 0.7592 -12.1235 -73.2260 -1.5021 -9.4467 -37.7728 -58.9131 -41.6169 -93.7877 -5.1846 -9.8028 -80.8462 -5.5553 -8.1357 -5.1576 -75.9373 -6.6148 -81.5712 -1.6189 -1.2645 -77.6114 -1.5941 -1.1587 32.0456 -66.8545 39.4243 -66.1571 12.0836 23.2939 -103.4594 5.7773 37.1939 -12.6783 -72.8214 -6.5858 -11.8345 -9.1877 -11.8377 -25.5053 -15.4568 -25.5114
 0.8768 56.4779 -1.5074 173.3684 -31.3892 176.2285 2.3421 5.5333 -1.4205 -24.4971 -43.1919 -23.7570 -98.4335 0.7634 -12.1267 -73.1744 -1.5054 -9.4403 -37.6481 -58.7966 -41.4690 -93.9208 -5.1788 -9.8195 -80.8391 -5.5554 -8.1348 -5.0342 -75.9711 -6.4889 -81.8805 -1.6206 -1.2728 -77.4695 -1.5931 -1.1549 32.0081 -66.9192 39.3856 -66.4163 12.0727 23.3998 -103.3721 5.8027 37.1666 -13.1981 -72.9085 -7.3092 -11.6595 -9.0800 -11.6627 -25.9047 -15.5818 -25.9108
 0.8837 56.4865 -1.5086 173.3263 -31.4802 176.2498 2.2771 5.5666 -1.4511 -24.5435 -43.2326 -23.8091 -98.2872 0.7470 -12.1143 -73.2115 -1.5030 -9.4449 -37.5093 -58.8102 -41.3256 -94.1117 -5.1705 -9.8433 -80.6403 -5.5582 -8.1086 -4.8694 -76.0073 -6.3208 -81.5200 -1.6187 -1.2631 -77.5233 -1.5935 -1.1564 32.0932 -66.9247 39.4695 -66.4014 12.0733 23.3937 -103.3173 5.8186 37.1495 -12.9788 -73.1978 -7.0108 -11.6855 -9.0960 -11.6887 -26.0779 -15.6350 -26.0840
 0.8865 56.4917 -1.5072 173.2901 -31.5096 176.2088 2.1242 5.5641 -1.2851 -24.3195 -43.0632 -23.5616 -98.6349 0.7860 -12.1438 -72.8620 -1.5255 -9.4014 -37.1644 -58.7601 -40.9569 -94.4163 -5.1571 -9.8813 -80.1889 -5.5641 -8.0492 -4.3422 -75.9251 -5.7817 -81.6793 -1.6195 -1.2674 -77.4452 -1.5929 -1.1543 32.5731 -66.7970 39.9473 -66.3684 12.0748 23.3802 -103.4140 5.7905 37.1797 -13.0268 -73.1261 -7.2167 -11.5527 -9.0138 -11.5558 -26.3901 -15.7296 -26.3963
 0.8957 56.4940 -1.5063 173.3810 -31.5699 176.3195 2.2208 5.5886 -1.3461 -24.2276 -43.1454 -23.4812 -98.8873 0.8144 -12.1651 -72.6099 -1.5416 -9.3700 -36.9385 -58.8333 -40.7313 -94.5219 -5.1524 -9.8945 -80.0726 -5.5655 -8.0339 -4.6512 -75.9016 -6.0973 -81.8812 -1.6206 -1.2728 -77.4296 -1.5928 -1.1539 33.0355 -66.7488 40.4058 -67.0652 12.0433 23.6647 -102.7935 5.9699 36.9852 -12.5006 -73.3737 -6.5305 -11.6309 -9.0623 -11.6341 -26.6203 -15.7981 -26.6266
 0.9016 56.4931 -1.5090 173.3239 -31.6484 176.3523 2.1022 5.4813 -1.4281 -23.9469 -43.1336 -23.1997 -99.1066 0.8392 -12.1835 -72.2555 -1.5640 -9.3257 -36.4546 -58.9381 -40.2411 -94.6122 -5.1483 -9.9057 -79.8245 -5.5685 -8.0012 -3.5586 -76.0668 -4.9820 -81.2113 -1.6170 -1.2548 -77.6718 -1.5946 -1.1603 33.0055 -66.6621 40.3783 -66.9838 12.0471 23.6315 -102.7400 5.9853 36.9684 -12.2325 -73.2813 -6.2751 -11.6111 -9.0500 -11.6143 -26.5913 -15.7896 -26.5976
